<?xml version="1.0" encoding="UTF-8" standalone="no"?>
<!DOCTYPE svg PUBLIC "-//W3C//DTD SVG 1.1//EN" "http://www.w3.org/Graphics/SVG/1.1/DTD/svg11.dtd">
<!-- Created with Vectornator (http://vectornator.io/) -->
<svg height="100%" stroke-miterlimit="10" style="fill-rule:nonzero;clip-rule:evenodd;stroke-linecap:round;stroke-linejoin:round;" version="1.1" viewBox="0 0 300 300" width="100%" xml:space="preserve" xmlns="http://www.w3.org/2000/svg" xmlns:vectornator="http://vectornator.io" xmlns:xlink="http://www.w3.org/1999/xlink">
<defs/>
<g id="Copyright" vectornator:layerName="Copyright">
<g opacity="1">
<path d="M287.792 294.847L284.929 294.847L284.929 287.653C284.929 287.262 284.788 286.925 284.506 286.644C284.224 286.362 283.882 286.221 283.48 286.221C283.089 286.221 282.752 286.362 282.47 286.644C282.189 286.925 282.048 287.262 282.048 287.653L282.048 294.847L279.167 294.847L279.167 284.789L282.048 284.789L282.048 286.221C282.105 285.738 282.255 285.378 282.496 285.143C282.738 284.907 283.066 284.789 283.48 284.789L284.929 284.789C285.906 284.789 286.625 285.128 287.085 285.807C287.315 285.462 287.608 285.206 287.965 285.039C288.321 284.872 288.747 284.789 289.241 284.789L290.673 284.789C291.455 284.789 292.131 285.071 292.7 285.634C293.27 286.198 293.554 286.871 293.554 287.653L293.554 294.847L290.673 294.847L290.673 287.653C290.673 287.273 290.532 286.94 290.251 286.652C289.969 286.365 289.633 286.221 289.241 286.221C288.85 286.221 288.511 286.362 288.224 286.644C287.936 286.925 287.792 287.262 287.792 287.653L287.792 294.847Z" fill="#edc822" fill-rule="nonzero" opacity="1" stroke="none"/>
<path d="M273.422 294.847L273.422 281.908L276.303 281.908L276.303 294.847L273.422 294.847Z" fill="#edc822" fill-rule="nonzero" opacity="1" stroke="none"/>
<path d="M267.677 289.102L267.677 287.653C267.677 287.262 267.536 286.925 267.255 286.644C266.973 286.362 266.631 286.221 266.228 286.221L264.796 286.221C263.945 286.221 263.468 286.698 263.364 287.653L261.915 287.653C262.145 285.744 263.106 284.789 264.796 284.789L267.677 284.789C268.459 284.789 269.132 285.071 269.696 285.634C270.259 286.198 270.541 286.871 270.541 287.653L270.541 294.847L267.677 294.847L267.677 293.415C267.562 294.369 267.079 294.847 266.228 294.847L264.796 294.847C264.014 294.847 263.339 294.565 262.769 294.001C262.2 293.438 261.915 292.759 261.915 291.966C261.915 291.184 262.2 290.511 262.769 289.947C263.339 289.384 264.014 289.102 264.796 289.102L267.677 289.102ZM267.677 290.534L266.228 290.534C265.837 290.534 265.501 290.675 265.219 290.956C264.937 291.238 264.796 291.575 264.796 291.966C264.796 292.357 264.937 292.696 265.219 292.983C265.501 293.271 265.837 293.415 266.228 293.415C266.631 293.415 266.973 293.271 267.255 292.983C267.536 292.696 267.677 292.357 267.677 291.966L267.677 290.534Z" fill="#edc822" fill-rule="nonzero" opacity="1" stroke="none"/>
<path d="M259.034 284.789L259.034 294.847L256.171 294.847L256.171 293.415C256.056 294.369 255.573 294.847 254.722 294.847L253.29 294.847C252.508 294.847 251.832 294.565 251.263 294.001C250.693 293.438 250.409 292.759 250.409 291.966L250.409 284.789L253.29 284.789L253.29 291.966C253.29 292.357 253.431 292.696 253.712 292.983C253.994 293.271 254.331 293.415 254.722 293.415C255.124 293.415 255.466 293.271 255.748 292.983C256.03 292.696 256.171 292.357 256.171 291.966L256.171 284.789L259.034 284.789Z" fill="#edc822" fill-rule="nonzero" opacity="1" stroke="none"/>
<path d="M247.545 287.653L246.113 287.653C245.998 286.698 245.515 286.221 244.664 286.221C244.273 286.221 243.937 286.362 243.655 286.644C243.373 286.925 243.232 287.262 243.232 287.653L243.232 291.966C243.232 292.357 243.373 292.696 243.655 292.983C243.937 293.271 244.273 293.415 244.664 293.415C245.515 293.415 245.998 292.932 246.113 291.966L247.545 291.966C247.43 293.886 246.47 294.847 244.664 294.847L243.232 294.847C242.45 294.847 241.774 294.565 241.205 294.001C240.636 293.438 240.351 292.759 240.351 291.966L240.351 287.653C240.351 286.871 240.636 286.198 241.205 285.634C241.774 285.071 242.45 284.789 243.232 284.789L244.664 284.789C246.481 284.789 247.441 285.744 247.545 287.653Z" fill="#edc822" fill-rule="nonzero" opacity="1" stroke="none"/>
<path d="M237.487 287.653L236.056 287.653C235.929 286.698 235.475 286.221 234.693 286.221C234.187 286.221 233.807 286.322 233.554 286.523C233.301 286.724 233.175 287.02 233.175 287.411C233.175 287.825 233.87 288.406 235.262 289.154C236.401 289.763 237.056 290.269 237.229 290.672C237.401 291.074 237.487 291.506 237.487 291.966C237.487 292.759 237.206 293.438 236.642 294.001C236.079 294.565 235.4 294.847 234.606 294.847L233.175 294.847C231.254 294.847 230.294 293.886 230.294 291.966L231.743 291.966C231.858 292.932 232.306 293.415 233.088 293.415C233.606 293.415 233.991 293.314 234.244 293.113C234.497 292.912 234.624 292.61 234.624 292.207C234.624 291.805 233.928 291.23 232.536 290.482C231.398 289.872 230.739 289.366 230.561 288.964C230.383 288.561 230.294 288.13 230.294 287.67C230.294 286.876 230.578 286.198 231.148 285.634C231.717 285.071 232.393 284.789 233.175 284.789L234.606 284.789C236.412 284.789 237.372 285.744 237.487 287.653Z" fill="#edc822" fill-rule="nonzero" opacity="1" stroke="none"/>
<path d="M224.549 289.102L224.549 287.653C224.549 287.262 224.408 286.925 224.126 286.644C223.845 286.362 223.502 286.221 223.1 286.221L221.668 286.221C220.817 286.221 220.34 286.698 220.236 287.653L218.787 287.653C219.017 285.744 219.977 284.789 221.668 284.789L224.549 284.789C225.331 284.789 226.004 285.071 226.567 285.634C227.131 286.198 227.413 286.871 227.413 287.653L227.413 294.847L224.549 294.847L224.549 293.415C224.434 294.369 223.951 294.847 223.1 294.847L221.668 294.847C220.886 294.847 220.21 294.565 219.641 294.001C219.072 293.438 218.787 292.759 218.787 291.966C218.787 291.184 219.072 290.511 219.641 289.947C220.21 289.384 220.886 289.102 221.668 289.102L224.549 289.102ZM224.549 290.534L223.1 290.534C222.709 290.534 222.372 290.675 222.091 290.956C221.809 291.238 221.668 291.575 221.668 291.966C221.668 292.357 221.809 292.696 222.091 292.983C222.372 293.271 222.709 293.415 223.1 293.415C223.502 293.415 223.845 293.271 224.126 292.983C224.408 292.696 224.549 292.357 224.549 291.966L224.549 290.534Z" fill="#edc822" fill-rule="nonzero" opacity="1" stroke="none"/>
<path d="M207.28 284.789L210.161 284.789L210.161 286.221C210.161 285.738 210.282 285.378 210.524 285.143C210.765 284.907 211.122 284.789 211.593 284.789L213.042 284.789C213.824 284.789 214.497 285.071 215.061 285.634C215.624 286.198 215.906 286.871 215.906 287.653L215.906 291.966C215.906 292.759 215.624 293.438 215.061 294.001C214.497 294.565 213.824 294.847 213.042 294.847L210.161 294.847L210.161 297.728L207.28 297.728L207.28 284.789ZM210.161 293.415L211.593 293.415C211.996 293.415 212.338 293.274 212.62 292.992C212.901 292.71 213.042 292.368 213.042 291.966L213.042 287.653C213.042 287.262 212.901 286.925 212.62 286.644C212.338 286.362 211.996 286.221 211.593 286.221C211.202 286.221 210.866 286.362 210.584 286.644C210.302 286.925 210.161 287.262 210.161 287.653L210.161 293.415Z" fill="#edc822" fill-rule="nonzero" opacity="1" stroke="none"/>
<path d="M201.536 289.102L201.536 287.653C201.536 287.262 201.395 286.925 201.113 286.644C200.831 286.362 200.489 286.221 200.087 286.221L198.655 286.221C197.804 286.221 197.326 286.698 197.223 287.653L195.774 287.653C196.004 285.744 196.964 284.789 198.655 284.789L201.536 284.789C202.318 284.789 202.991 285.071 203.554 285.634C204.118 286.198 204.399 286.871 204.399 287.653L204.399 294.847L201.536 294.847L201.536 293.415C201.421 294.369 200.938 294.847 200.087 294.847L198.655 294.847C197.873 294.847 197.197 294.565 196.628 294.001C196.058 293.438 195.774 292.759 195.774 291.966C195.774 291.184 196.058 290.511 196.628 289.947C197.197 289.384 197.873 289.102 198.655 289.102L201.536 289.102ZM201.536 290.534L200.087 290.534C199.696 290.534 199.359 290.675 199.077 290.956C198.796 291.238 198.655 291.575 198.655 291.966C198.655 292.357 198.796 292.696 199.077 292.983C199.359 293.271 199.696 293.415 200.087 293.415C200.489 293.415 200.831 293.271 201.113 292.983C201.395 292.696 201.536 292.357 201.536 291.966L201.536 290.534Z" fill="#edc822" fill-rule="nonzero" opacity="1" stroke="none"/>
<path d="M187.148 286.221L185.716 286.221C185.325 286.221 184.986 286.362 184.698 286.644C184.411 286.925 184.267 287.262 184.267 287.653L184.267 289.102C184.267 289.493 184.408 289.829 184.69 290.111C184.971 290.393 185.314 290.534 185.716 290.534C186.107 290.534 186.444 290.393 186.725 290.111C187.007 289.829 187.148 289.493 187.148 289.102L187.148 286.221ZM190.029 294.847L184.992 294.847C183.623 294.847 182.441 294.352 181.446 293.363C180.452 292.374 179.954 291.189 179.954 289.809L179.954 286.945C179.954 285.565 180.452 284.381 181.446 283.392C182.441 282.403 183.623 281.908 184.992 281.908L187.873 281.908C189.241 281.908 190.42 282.403 191.409 283.392C192.398 284.381 192.893 285.565 192.893 286.945L192.893 290.534C192.893 290.925 192.755 291.261 192.479 291.543C192.203 291.825 191.863 291.966 191.461 291.966L188.58 291.966C187.74 291.966 187.263 291.488 187.148 290.534C187.102 291.017 186.941 291.376 186.665 291.612C186.389 291.848 185.986 291.966 185.457 291.966C184.848 291.966 184.258 291.687 183.689 291.129C183.12 290.571 182.835 289.895 182.835 289.102L182.835 287.653C182.835 286.871 183.12 286.198 183.689 285.634C184.258 285.071 184.934 284.789 185.716 284.789L188.58 284.789L188.58 289.809C188.58 290.292 188.821 290.534 189.304 290.534L190.736 290.534C191.219 290.534 191.461 290.292 191.461 289.809L191.461 286.945C191.461 285.979 191.11 285.137 190.409 284.418C189.707 283.699 188.862 283.34 187.873 283.34L184.992 283.34C184.026 283.34 183.186 283.691 182.473 284.392C181.76 285.094 181.403 285.945 181.403 286.945L181.403 289.809C181.403 290.775 181.754 291.618 182.456 292.336C183.157 293.055 184.003 293.415 184.992 293.415L190.029 293.415L190.029 294.847Z" fill="#edc822" fill-rule="nonzero" opacity="1" stroke="none"/>
</g>
</g>
<g id="Clock" vectornator:layerName="Clock">
<path d="M32.1949 150C32.1949 81.3194 84.938 25.6428 150 25.6428C215.062 25.6428 267.805 81.3194 267.805 150C267.805 218.681 215.062 274.357 150 274.357C84.938 274.357 32.1949 218.681 32.1949 150Z" fill="none" opacity="1" stroke="#edc822" stroke-linecap="butt" stroke-linejoin="round" stroke-width="5"/>
<path d="M137.779 150C137.779 143.251 143.251 137.779 150 137.779C156.749 137.779 162.221 143.251 162.221 150C162.221 156.749 156.749 162.221 150 162.221C143.251 162.221 137.779 156.749 137.779 150Z" fill="#edc822" fill-rule="nonzero" opacity="1" stroke="none"/>
</g>
<g id="Seconds" vectornator:layerName="Seconds">
<path d="M150 149.887L150 37.3332" fill="none" opacity="1" stroke="#3e68ff" stroke-linecap="round" stroke-linejoin="round" stroke-width="6"/>
</g>
<g id="Minutes" vectornator:layerName="Minutes">
<path d="M150 149.887L150 49.3332" fill="none" opacity="1" stroke="#9c3c9b" stroke-linecap="round" stroke-linejoin="round" stroke-width="8"/>
</g>
<g id="Hours" vectornator:layerName="Hours">
<path d="M150 149.887L150 64.3332" fill="none" opacity="1" stroke="#8f1442" stroke-linecap="round" stroke-linejoin="round" stroke-width="8"/>
</g>
</svg>
