<?xml version="1.0" encoding="UTF-8" standalone="no"?>
<!DOCTYPE svg PUBLIC "-//W3C//DTD SVG 1.1//EN" "http://www.w3.org/Graphics/SVG/1.1/DTD/svg11.dtd">
<!-- Created with Vectornator (http://vectornator.io/) -->
<svg height="100%" stroke-miterlimit="10" style="fill-rule:nonzero;clip-rule:evenodd;stroke-linecap:round;stroke-linejoin:round;" version="1.1" viewBox="0 0 268.064 193.575" width="100%" xml:space="preserve" xmlns="http://www.w3.org/2000/svg" xmlns:vectornator="http://vectornator.io" xmlns:xlink="http://www.w3.org/1999/xlink">
<defs>
<clipPath id="TextBounds">
<rect height="64.488" width="179.064" x="37.5046" y="61.1224"/>
</clipPath>
</defs>
<g id="Capa-1" vectornator:layerName="Capa 1">
<g opacity="1">
<path d="M143.457 20.0051C133.259 20.0051 123.975 22.975 116.457 27.7551C111.512 26.2841 106.119 25.4426 100.425 25.4426C86.9031 25.4426 74.9881 30.0872 67.3629 37.1926C67.1175 37.1895 66.8904 37.1301 66.6441 37.1301C40.8657 37.1301 19.9566 54.2951 19.9566 75.4426C19.9566 83.182 22.8001 90.3573 27.6129 96.3801C23.8852 101.228 21.6441 106.913 21.6441 113.036C21.6441 130.555 39.2586 144.755 60.9879 144.755C70.1797 144.755 78.5404 142.108 85.2379 137.849C94.7309 155.974 113.528 168.318 135.144 168.318C140.44 168.318 145.534 167.546 150.394 166.161C157.529 177.317 171.271 184.974 187.269 184.974C210.54 184.974 229.394 168.957 229.394 149.193C229.394 147.888 229.117 146.648 228.957 145.38C243.521 139.451 253.738 125.741 253.738 109.755C253.738 94.8288 244.741 82.0151 231.707 75.5363C232.495 72.6598 233.05 69.6972 233.05 66.5988C233.05 46.1407 214.78 29.5676 192.269 29.5676C186.687 29.5676 181.395 30.5969 176.55 32.4426C168.375 24.8762 156.658 20.0051 143.457 20.0051Z" fill="#e0c9e0" fill-rule="nonzero" opacity="1" stroke="none"/>
<path d="M136.145 14.7198C125.947 14.7198 116.663 17.6896 109.145 22.4698C104.2 20.9987 98.8071 20.1573 93.1139 20.1573C79.5917 20.1573 67.6766 24.8019 60.0514 31.9073C59.806 31.9041 59.579 31.8448 59.3327 31.8448C33.5542 31.8448 12.6452 49.0097 12.6452 70.1573C12.6452 77.8967 15.4886 85.072 20.3014 91.0948C16.5738 95.9428 14.3327 101.628 14.3327 107.751C14.3327 125.27 31.9471 139.47 53.6764 139.47C62.8683 139.47 71.2289 136.822 77.9264 132.564C87.4194 150.689 106.216 163.032 127.833 163.032C133.128 163.032 138.222 162.261 143.083 160.876C150.218 172.031 163.959 179.689 179.958 179.689C203.228 179.688 222.083 163.671 222.083 143.907C222.083 142.603 221.805 141.363 221.645 140.095C236.209 134.166 246.426 120.456 246.426 104.47C246.426 89.5435 237.429 76.7298 224.395 70.251C225.184 67.3745 225.739 64.4119 225.739 61.3135C225.739 40.8554 207.468 24.2823 184.958 24.2823C179.376 24.2823 174.083 25.3115 169.239 27.1573C161.063 19.5909 149.347 14.7198 136.145 14.7198Z" fill="#f5dff5" fill-rule="nonzero" opacity="1" stroke="none"/>
<g fill="#9c3c9b" opacity="1" stroke="none">
<path clip-path="url(#TextBounds)" d="M75.1606 96.7604C74.9626 98.7404 74.8966 100.456 74.8966 101.776C74.9626 105.538 76.0186 107.188 77.3386 107.782C77.9326 108.046 78.3286 107.848 78.3286 107.188C78.4606 103.69 78.8566 100.06 79.3186 96.6284C80.4406 96.6944 81.3646 96.8264 82.1566 97.0244C82.7506 97.2224 83.0146 97.0244 82.8826 96.4304C82.6186 95.0444 81.8926 93.7244 79.9126 93.0644C81.1666 85.8044 83.0146 79.0724 84.7306 73.8584C85.3246 72.0764 85.3906 70.6244 84.7306 69.0404C84.0706 67.3904 83.8726 67.2584 83.2126 66.3344C82.5526 65.4104 81.8926 65.4104 80.8366 66.2684C73.8406 72.0104 64.6666 85.0784 59.5186 94.0544C58.4626 93.9884 57.4726 93.8564 56.5486 93.7244C55.5586 93.5924 55.4266 93.8564 55.7566 94.7144C55.9546 95.1764 56.4826 96.1664 57.9346 96.9584C57.1426 98.4104 56.5486 99.7304 56.1526 100.72C54.7666 104.416 55.0306 106.396 55.8226 107.452C56.1526 107.914 56.7466 107.914 57.0106 107.32C58.3306 104.416 60.0466 101.182 62.0266 97.8164C65.1286 97.8824 70.4746 97.0904 75.1606 96.7604ZM64.5346 93.8564C69.5506 86.0024 75.5566 78.0164 80.5726 72.4064C78.5266 77.5544 76.6786 85.8704 75.6886 92.7344C72.5866 92.8004 68.5606 93.5264 64.5346 93.8564Z"/>
<path clip-path="url(#TextBounds)" d="M132.383 101.446C133.175 99.4664 133.043 97.8824 132.713 97.1564C132.449 96.5624 131.987 96.5624 131.723 97.1564C129.611 102.106 126.245 106.396 123.605 106.264C121.493 106.132 120.701 103.492 121.955 99.8624C123.143 96.4964 126.311 91.9424 129.413 88.4444C131.393 86.2004 129.743 83.1644 128.555 81.7124C128.027 81.0524 127.367 81.2504 126.575 81.9104C124.001 83.6264 121.625 84.6824 119.315 85.0124C120.767 80.6564 121.295 76.5644 119.183 76.6964C116.477 76.8944 110.273 85.8044 115.553 87.7844C112.055 97.1564 106.577 105.604 102.353 106C100.307 106.198 99.9766 103.624 101.627 99.8624C103.079 96.4964 106.445 91.5464 107.831 88.5764C109.415 85.2764 108.887 82.3724 107.897 81.3164C107.369 80.7884 106.907 80.9204 106.313 81.7124C104.201 84.5504 102.353 88.9724 98.1946 95.7704C94.6966 101.446 91.0006 106 88.4266 105.802C86.9746 105.67 86.7766 103.36 88.0966 100.126C89.3506 97.0244 91.0006 94.3844 93.3106 90.4904C95.6866 86.5304 96.0166 83.8244 94.4326 81.6464C93.9706 80.9864 93.4426 81.0524 92.9146 81.7124C88.4926 87.6524 85.2586 94.0544 83.8066 98.4104C82.3546 102.7 82.4206 107.584 87.1726 107.914C90.8026 108.178 94.1026 104.944 96.4126 101.842C96.0826 105.604 97.9966 108.31 101.957 107.98C109.085 107.386 114.695 96.8264 118.127 88.1144C120.305 88.1144 123.143 87.4544 126.047 85.6064C123.275 88.7744 119.183 93.7244 117.797 98.1464C116.147 103.426 118.127 107.98 123.275 108.112C126.773 108.178 130.733 105.406 132.383 101.446Z"/>
<path clip-path="url(#TextBounds)" d="M174.227 101.512C175.019 99.7964 174.755 98.0144 174.425 97.2224C174.161 96.6284 173.699 96.7604 173.435 97.3544C171.323 102.172 167.957 106.594 165.317 106.396C163.205 106.264 162.413 103.69 163.667 100.06C164.855 96.5624 168.023 92.0744 171.125 88.5764C173.105 86.3324 171.455 83.2304 170.267 81.8444C169.739 81.1844 169.145 81.3824 168.287 81.9764C165.779 83.6924 163.469 84.8144 161.159 85.1444C162.479 81.6464 163.667 76.8284 161.357 76.8944C158.717 76.9604 152.249 85.6724 157.133 87.7844C155.747 90.2924 153.833 91.5464 151.985 91.8764C151.985 91.4804 152.117 91.1504 152.117 90.8204C152.447 86.0024 150.533 85.6064 148.949 83.5604C147.563 81.7784 146.507 81.1184 144.527 81.3164C140.567 81.6464 136.409 85.3424 133.901 89.8964C131.063 95.1104 130.073 100.852 132.911 104.746C135.485 108.244 138.917 108.376 141.293 107.584C146.177 106 150.269 99.2024 151.589 93.5924C155.219 93.4604 157.925 91.2164 159.773 88.2464C161.885 88.2464 164.789 87.5864 167.759 85.6724C164.987 88.9064 160.829 93.7904 159.509 98.2124C157.859 103.624 159.905 108.046 164.987 108.31C168.617 108.508 172.445 105.472 174.227 101.512ZM147.893 90.8204C146.639 89.7644 146.045 88.1144 146.243 86.4644C146.507 84.5504 147.959 84.0224 148.223 86.2004C148.355 87.3224 148.289 88.9064 147.893 90.8204ZM147.299 92.7344C146.837 94.3844 146.045 96.1664 144.989 98.1464C141.689 104.152 137.597 106.528 135.881 105.01C134.165 103.492 135.089 97.4864 137.927 92.4704C139.379 89.9624 141.227 87.7844 143.009 86.2664C143.075 88.6424 144.725 91.2824 147.299 92.7344Z"/>
<path clip-path="url(#TextBounds)" d="M194.093 85.6724C194.225 83.0984 192.905 80.9204 190.067 80.9204C186.767 80.9204 181.553 83.8904 176.207 91.6784C170.729 99.6644 171.983 108.046 178.121 108.046C181.289 108.046 184.259 105.604 186.371 102.898C186.371 106 188.219 108.112 191.783 108.31C195.413 108.508 199.571 104.878 201.287 101.248C202.145 99.4004 202.145 97.7504 201.881 97.1564C201.617 96.5624 201.155 96.6284 200.825 97.2224C198.515 101.776 194.885 106.264 192.179 106.396C189.935 106.528 190.001 103.69 191.651 99.9944C193.235 96.4964 196.535 91.5464 197.987 88.5764C199.571 85.2764 199.043 82.4384 198.053 81.2504C197.591 80.6564 197.063 80.7884 196.469 81.6464C195.743 82.7024 194.951 84.0884 194.093 85.6724ZM188.351 95.9024C184.985 101.71 181.553 105.934 178.847 105.868C176.273 105.802 177.131 99.9944 180.629 94.3184C184.259 88.4444 189.077 84.1544 191.189 84.3524C193.103 84.5504 192.509 88.6424 188.351 95.9024Z"/>
</g>
</g>
</g>
</svg>
